<?xml version="1.0" encoding="utf-8"?>
<!-- Generator: Adobe Illustrator 19.0.0, SVG Export Plug-In . SVG Version: 6.00 Build 0)  -->
<svg version="1.1" id="Layer_1" xmlns="http://www.w3.org/2000/svg" xmlns:xlink="http://www.w3.org/1999/xlink" x="0px" y="0px"
	 viewBox="0 0 512 512" style="enable-background:new 0 0 512 512;" xml:space="preserve">
<g id="XMLID_1_">
	<path id="XMLID_3_" d="M159.4,403.6v7.3c10.9,0,21,4.6,28.2,11.8c7.3,7.3,11.8,17.3,11.8,28.2s-4.6,21-11.8,28.2
		c-7.3,7.3-17.3,11.8-28.2,11.8c-10.9,0-21-4.6-28.2-11.8c-7.3-7.3-11.8-17.3-11.8-28.2s4.6-21,11.8-28.2
		c7.3-7.3,17.3-11.8,28.2-11.8V403.6v-8.2c-31,0-55.6,24.6-55.6,55.6s24.6,55.6,55.6,55.6S215,481.9,215,451s-24.6-55.6-55.6-55.6
		V403.6z"/>
	<path id="XMLID_4_" d="M350.7,403.6v7.3c10.9,0,21,4.6,28.2,11.8c7.3,7.3,11.8,17.3,11.8,28.2s-4.6,21-11.8,28.2
		c-7.3,7.3-17.3,11.8-28.2,11.8s-21-4.6-28.2-11.8c-7.3-7.3-11.8-17.3-11.8-28.2s4.6-21,11.8-28.2c7.3-7.3,17.3-11.8,28.2-11.8
		V403.6v-8.2c-31,0-55.6,24.6-55.6,55.6s24.6,55.6,55.6,55.6c31,0,55.6-24.6,55.6-55.6s-24.6-55.6-55.6-55.6V403.6z"/>
	<polyline id="XMLID_5_" points="206.8,459.2 302.5,459.2 302.5,442.8 206.8,442.8 	"/>
	<polygon id="XMLID_6_" points="119.3,450 87.5,5.5 0,5.5 0,21 72.9,21 103.9,451.9 	"/>
	<polygon id="XMLID_7_" points="104.8,347.1 451.9,323.4 512,69.2 88.4,69.2 88.4,84.7 491,84.7 439.1,307.9 102.9,331.6 	"/>
	<polyline id="XMLID_8_" points="278.8,133 278.8,276 295.2,276 295.2,133 	"/>
	<polyline id="XMLID_9_" points="358,196.8 215,196.8 215,212.3 358,212.3 	"/>
</g>
</svg>
